# xmcd CD database file
#
# Track frame offsets:
#	150
#	20407
#	41232
#	61867
#	77870
#	99825
#	120477
#	143450
#	166340
#	184137
#	205292
#
# Disc length: 2937 seconds
#
# Revision: 0
# Processed by: cddbd v1.4PL0 Copyright (c) Steve Scherf et al.
# Submitted via: CDex 1.51
#
DISCID=8a0b770b
DTITLE=Marcos Caminero - Macheteando otra vez
DYEAR=1900
DGENRE=Merengue
TTITLE0=No me dejes solito
TTITLE1=Alguien
TTITLE2=No lo puedo negar
TTITLE3=La ventana
TTITLE4=Ponte la careta
TTITLE5=Te olvidare
TTITLE6=Tacita de oro
TTITLE7=El ga-ga
TTITLE8=El lamento
TTITLE9=Presumiblemente
TTITLE10=Te amo a ti
EXTD=
EXTT0=
EXTT1=
EXTT2=
EXTT3=
EXTT4=
EXTT5=
EXTT6=
EXTT7=
EXTT8=
EXTT9=
EXTT10=
PLAYORDER=
